solid OpenSCAD_Model
  facet normal 1 -0 0
    outer loop
      vertex 10.1 -9.1 4
      vertex 10.1 9.1 0
      vertex 10.1 9.1 4
    endloop
  endfacet
  facet normal 1 0 0
    outer loop
      vertex 10.1 9.1 0
      vertex 10.1 -9.1 4
      vertex 10.1 -9.1 0
    endloop
  endfacet
  facet normal 0 0 1
    outer loop
      vertex 10.1 9.1 4
      vertex 7.75 6.7 4
      vertex 10.1 -9.1 4
    endloop
  endfacet
  facet normal 0 0 1
    outer loop
      vertex 10.1 9.1 4
      vertex -7.75 6.7 4
      vertex 7.75 6.7 4
    endloop
  endfacet
  facet normal 0 0 1
    outer loop
      vertex -7.75 6.7 4
      vertex -10.1 9.1 4
      vertex -7.75 -6.7 4
    endloop
  endfacet
  facet normal -0 0 1
    outer loop
      vertex -10.1 9.1 4
      vertex -7.75 6.7 4
      vertex 10.1 9.1 4
    endloop
  endfacet
  facet normal -0 0 1
    outer loop
      vertex 7.75 -6.7 4
      vertex 10.1 -9.1 4
      vertex 7.75 6.7 4
    endloop
  endfacet
  facet normal -0 0 1
    outer loop
      vertex -7.75 -6.7 4
      vertex 10.1 -9.1 4
      vertex 7.75 -6.7 4
    endloop
  endfacet
  facet normal 0 0 1
    outer loop
      vertex -7.75 -6.7 4
      vertex -10.1 -9.1 4
      vertex 10.1 -9.1 4
    endloop
  endfacet
  facet normal 0 0 1
    outer loop
      vertex -10.1 -9.1 4
      vertex -7.75 -6.7 4
      vertex -10.1 9.1 4
    endloop
  endfacet
  facet normal 0 0 -1
    outer loop
      vertex 10.1 -9.1 0
      vertex 8.6 -6.7 0
      vertex 10.1 9.1 0
    endloop
  endfacet
  facet normal 0 0 -1
    outer loop
      vertex 10.1 -9.1 0
      vertex -8.6 -6.7 0
      vertex 8.6 -6.7 0
    endloop
  endfacet
  facet normal -0 0 -1
    outer loop
      vertex -8.6 -6.7 0
      vertex -10.1 -9.1 0
      vertex -8.6 6.7 0
    endloop
  endfacet
  facet normal 0 0 -1
    outer loop
      vertex -10.1 -9.1 0
      vertex -8.6 -6.7 0
      vertex 10.1 -9.1 0
    endloop
  endfacet
  facet normal 0 0 -1
    outer loop
      vertex 8.6 6.7 0
      vertex 10.1 9.1 0
      vertex 8.6 -6.7 0
    endloop
  endfacet
  facet normal 0 0 -1
    outer loop
      vertex -8.6 6.7 0
      vertex 10.1 9.1 0
      vertex 8.6 6.7 0
    endloop
  endfacet
  facet normal 0 0 -1
    outer loop
      vertex -8.6 6.7 0
      vertex -10.1 9.1 0
      vertex 10.1 9.1 0
    endloop
  endfacet
  facet normal 0 0 -1
    outer loop
      vertex -10.1 9.1 0
      vertex -8.6 6.7 0
      vertex -10.1 -9.1 0
    endloop
  endfacet
  facet normal -1 0 0
    outer loop
      vertex 8.6 -6.7 0
      vertex 8.6 6.7 2.9
      vertex 8.6 6.7 0
    endloop
  endfacet
  facet normal -1 -0 0
    outer loop
      vertex 8.6 6.7 2.9
      vertex 8.6 -6.7 0
      vertex 8.6 -6.7 2.9
    endloop
  endfacet
  facet normal 0 0 -1
    outer loop
      vertex 7.75 -6.7 2.9
      vertex 8.6 6.7 2.9
      vertex 8.6 -6.7 2.9
    endloop
  endfacet
  facet normal -0 0 -1
    outer loop
      vertex 8.6 6.7 2.9
      vertex 7.75 -6.7 2.9
      vertex 7.75 6.7 2.9
    endloop
  endfacet
  facet normal -1 0 0
    outer loop
      vertex 7.75 -6.7 2.9
      vertex 7.75 6.7 4
      vertex 7.75 6.7 2.9
    endloop
  endfacet
  facet normal -1 -0 0
    outer loop
      vertex 7.75 6.7 4
      vertex 7.75 -6.7 2.9
      vertex 7.75 -6.7 4
    endloop
  endfacet
  facet normal -1 0 0
    outer loop
      vertex -10.1 -9.1 0
      vertex -10.1 9.1 4
      vertex -10.1 9.1 0
    endloop
  endfacet
  facet normal -1 -0 0
    outer loop
      vertex -10.1 9.1 4
      vertex -10.1 -9.1 0
      vertex -10.1 -9.1 4
    endloop
  endfacet
  facet normal 0 1 -0
    outer loop
      vertex 10.1 9.1 0
      vertex -10.1 9.1 4
      vertex 10.1 9.1 4
    endloop
  endfacet
  facet normal 0 1 0
    outer loop
      vertex -10.1 9.1 4
      vertex 10.1 9.1 0
      vertex -10.1 9.1 0
    endloop
  endfacet
  facet normal 0 -1 0
    outer loop
      vertex -8.6 6.7 0
      vertex -7.75 6.7 2.9
      vertex -8.6 6.7 2.9
    endloop
  endfacet
  facet normal 0 -1 -0
    outer loop
      vertex -7.75 6.7 2.9
      vertex -8.6 6.7 0
      vertex 7.75 6.7 2.9
    endloop
  endfacet
  facet normal 0 -1 0
    outer loop
      vertex 8.6 6.7 0
      vertex 7.75 6.7 2.9
      vertex -8.6 6.7 0
    endloop
  endfacet
  facet normal 0 -1 0
    outer loop
      vertex 7.75 6.7 2.9
      vertex 8.6 6.7 0
      vertex 8.6 6.7 2.9
    endloop
  endfacet
  facet normal 0 -1 0
    outer loop
      vertex -7.75 6.7 2.9
      vertex 7.75 6.7 4
      vertex -7.75 6.7 4
    endloop
  endfacet
  facet normal 0 -1 -0
    outer loop
      vertex 7.75 6.7 4
      vertex -7.75 6.7 2.9
      vertex 7.75 6.7 2.9
    endloop
  endfacet
  facet normal 1 -0 0
    outer loop
      vertex -8.6 -6.7 2.9
      vertex -8.6 6.7 0
      vertex -8.6 6.7 2.9
    endloop
  endfacet
  facet normal 1 0 0
    outer loop
      vertex -8.6 6.7 0
      vertex -8.6 -6.7 2.9
      vertex -8.6 -6.7 0
    endloop
  endfacet
  facet normal 0 0 -1
    outer loop
      vertex -8.6 -6.7 2.9
      vertex -7.75 6.7 2.9
      vertex -7.75 -6.7 2.9
    endloop
  endfacet
  facet normal -0 0 -1
    outer loop
      vertex -7.75 6.7 2.9
      vertex -8.6 -6.7 2.9
      vertex -8.6 6.7 2.9
    endloop
  endfacet
  facet normal 1 -0 0
    outer loop
      vertex -7.75 -6.7 4
      vertex -7.75 6.7 2.9
      vertex -7.75 6.7 4
    endloop
  endfacet
  facet normal 1 0 0
    outer loop
      vertex -7.75 6.7 2.9
      vertex -7.75 -6.7 4
      vertex -7.75 -6.7 2.9
    endloop
  endfacet
  facet normal 0 -1 0
    outer loop
      vertex -10.1 -9.1 0
      vertex 10.1 -9.1 4
      vertex -10.1 -9.1 4
    endloop
  endfacet
  facet normal 0 -1 -0
    outer loop
      vertex 10.1 -9.1 4
      vertex -10.1 -9.1 0
      vertex 10.1 -9.1 0
    endloop
  endfacet
  facet normal 0 1 -0
    outer loop
      vertex 8.6 -6.7 0
      vertex 7.75 -6.7 2.9
      vertex 8.6 -6.7 2.9
    endloop
  endfacet
  facet normal 0 1 0
    outer loop
      vertex 7.75 -6.7 2.9
      vertex 8.6 -6.7 0
      vertex -7.75 -6.7 2.9
    endloop
  endfacet
  facet normal 0 1 0
    outer loop
      vertex -8.6 -6.7 0
      vertex -7.75 -6.7 2.9
      vertex 8.6 -6.7 0
    endloop
  endfacet
  facet normal 0 1 0
    outer loop
      vertex -7.75 -6.7 2.9
      vertex -8.6 -6.7 0
      vertex -8.6 -6.7 2.9
    endloop
  endfacet
  facet normal 0 1 -0
    outer loop
      vertex 7.75 -6.7 2.9
      vertex -7.75 -6.7 4
      vertex 7.75 -6.7 4
    endloop
  endfacet
  facet normal 0 1 0
    outer loop
      vertex -7.75 -6.7 4
      vertex 7.75 -6.7 2.9
      vertex -7.75 -6.7 2.9
    endloop
  endfacet
endsolid OpenSCAD_Model
